<svg class="diagram-root" style="background: #f5f6f6" xmlns="http://www.w3.org/2000/svg" xmlns:xlink="http://www.w3.org/1999/xlink"><style>.diagram-root { font-family: "Helvetica Neue", sans-serif; font-size: 12px; } .t { overflow: visible; } .t-bg { y: 40; fill: #fff;   } .th { fill: #005aa0;   } .tht { fill: #fff; font-size: 14px;  } .tf { fill: #323c46; overflow: visible; } .tf.pk { fill: #005aa0; font-weight: bold; } .tf.fk { font-weight: bold; } .ty { fill: #adb1b5; font-weight: normal; text-anchor: end; } .r { fill: transparent; stroke: #c3c3c3; stroke-width: 1; } .l { stroke: 1; } .i { fill: #c2c7ce; stroke: #c2c7ce; } .i.ix { fill: #afb3b6; stroke: #000; } .fa { fill: transparent; overflow: visible; } .fa .bg.hover { fill: #f7f7f7; } .c { cy: 12; r: 4; stroke: #d2d2dc; fill: #d2d2dc; } .hr { fill: transparent; stroke: #323c46; stroke-opacity: 0.035; stroke-width: 13; } .dc { stroke: #fa5a3c; fill: #fa5a3c; } .x { stroke: white; stroke-width: 1; } .hl .th { fill: #1b9bff; } .hl .tht {  } .fhl .bg { fill: #e7f4ff; } .fhls .bg {  } .r.hl { stroke: #1b9bff; } .dim { opacity: 0.25; }</style><g class="drawing-wrapper" transform="translate(61.43888888888836, 52.22222222222217) scale(1,1)"><g class="rs"><path d="M 708.72 189.78777777777785 m -1, 0 a 1,1 0 1,0 2,0 a 1,1 0 1,0 -2,0 M 708.72 189.78777777777785 m -0.5, 0 a 0.5,0.5 0 1,0 1,0 a 0.5,0.5 0 1,0 -1,0  M708.72 189.78777777777785 L708.72 189.78777777777785 720.72 189.78777777777785 M 708.72 195.78777777777785 m -1, 0 a 1,1 0 1,0 2,0 a 1,1 0 1,0 -2,0 M 708.72 195.78777777777785 m -0.5, 0 a 0.5,0.5 0 1,0 1,0 a 0.5,0.5 0 1,0 -1,0  M708.72 195.78777777777785 L708.72 195.78777777777785 715.72 189.78777777777785 708.72 183.78777777777785 M 708.72 183.78777777777785 m -1, 0 a 1,1 0 1,0 2,0 a 1,1 0 1,0 -2,0 M 708.72 183.78777777777785 m -0.5, 0 a 0.5,0.5 0 1,0 1,0 a 0.5,0.5 0 1,0 -1,0  M720.72 189.78777777777785 Q 745.32 189.78777777777785, 769.92 260.61 T 819.1200000000009 331.44111111111107 M 831.1200000000009 331.44111111111107 m -1, 0 a 1,1 0 1,0 2,0 a 1,1 0 1,0 -2,0 M 831.1200000000009 331.44111111111107 m -0.5, 0 a 0.5,0.5 0 1,0 1,0 a 0.5,0.5 0 1,0 -1,0  M831.1200000000009 331.44111111111107 L831.1200000000009 331.44111111111107 819.1200000000009 331.44111111111107 M825.1200000000009 337.44111111111107 L825.1200000000009 337.44111111111107 825.1200000000009 325.44111111111107" id="h1537058300" class="r"></path><path d="M 415.73 353.66777777777696 m -1, 0 a 1,1 0 1,0 2,0 a 1,1 0 1,0 -2,0 M 415.73 353.66777777777696 m -0.5, 0 a 0.5,0.5 0 1,0 1,0 a 0.5,0.5 0 1,0 -1,0  M415.73 353.66777777777696 L415.73 353.66777777777696 427.73 353.66777777777696 M421.73 359.66777777777696 L421.73 359.66777777777696 421.73 347.66777777777696 M427.73 353.66777777777696 Q 447.52 353.66777777777696, 467.3 259.23 T 506.87888888888904 164.78777777777785 M 518.878888888889 164.78777777777785 m -1, 0 a 1,1 0 1,0 2,0 a 1,1 0 1,0 -2,0 M 518.878888888889 164.78777777777785 m -0.5, 0 a 0.5,0.5 0 1,0 1,0 a 0.5,0.5 0 1,0 -1,0  M518.878888888889 164.78777777777785 L518.878888888889 164.78777777777785 506.87888888888904 164.78777777777785 M512.878888888889 170.78777777777785 L512.878888888889 170.78777777777785 512.878888888889 158.78777777777785" id="h1139284389" class="r"></path><path d="M 415.73 378.66777777777696 m -1, 0 a 1,1 0 1,0 2,0 a 1,1 0 1,0 -2,0 M 415.73 378.66777777777696 m -0.5, 0 a 0.5,0.5 0 1,0 1,0 a 0.5,0.5 0 1,0 -1,0  M415.73 378.66777777777696 L415.73 378.66777777777696 427.73 378.66777777777696 M 415.73 384.66777777777696 m -1, 0 a 1,1 0 1,0 2,0 a 1,1 0 1,0 -2,0 M 415.73 384.66777777777696 m -0.5, 0 a 0.5,0.5 0 1,0 1,0 a 0.5,0.5 0 1,0 -1,0  M415.73 384.66777777777696 L415.73 384.66777777777696 422.73 378.66777777777696 415.73 372.66777777777696 M 415.73 372.66777777777696 m -1, 0 a 1,1 0 1,0 2,0 a 1,1 0 1,0 -2,0 M 415.73 372.66777777777696 m -0.5, 0 a 0.5,0.5 0 1,0 1,0 a 0.5,0.5 0 1,0 -1,0  M427.73 378.66777777777696 Q 451.13 378.66777777777696, 474.53 468.39 T 521.3288888888881 558.1077777777803 M 533.3288888888881 558.1077777777803 m -1, 0 a 1,1 0 1,0 2,0 a 1,1 0 1,0 -2,0 M 533.3288888888881 558.1077777777803 m -0.5, 0 a 0.5,0.5 0 1,0 1,0 a 0.5,0.5 0 1,0 -1,0  M533.3288888888881 558.1077777777803 L533.3288888888881 558.1077777777803 521.3288888888881 558.1077777777803 M527.3288888888881 564.1077777777803 L527.3288888888881 564.1077777777803 527.3288888888881 552.1077777777803" id="h1607168654" class="r"></path><path d="M 823.3344444444458 34.77777777777783 m -1, 0 a 1,1 0 1,0 2,0 a 1,1 0 1,0 -2,0 M 823.3344444444458 34.77777777777783 m -0.5, 0 a 0.5,0.5 0 1,0 1,0 a 0.5,0.5 0 1,0 -1,0  M823.3344444444458 34.77777777777783 L823.3344444444458 34.77777777777783 811.3344444444458 34.77777777777783 M817.3344444444458 40.77777777777783 L817.3344444444458 40.77777777777783 817.3344444444458 28.77777777777783 M811.3344444444458 34.77777777777783 Q 788.68 34.77777777777783, 766.03 99.78 T 720.72 164.78777777777785 M 708.72 164.78777777777785 m -1, 0 a 1,1 0 1,0 2,0 a 1,1 0 1,0 -2,0 M 708.72 164.78777777777785 m -0.5, 0 a 0.5,0.5 0 1,0 1,0 a 0.5,0.5 0 1,0 -1,0  M708.72 164.78777777777785 L708.72 164.78777777777785 720.72 164.78777777777785 M714.72 170.78777777777785 L714.72 170.78777777777785 714.72 158.78777777777785" id="h3177548053" class="r"></path><path d="M 129.07 353.66666666666663 m -1, 0 a 1,1 0 1,0 2,0 a 1,1 0 1,0 -2,0 M 129.07 353.66666666666663 m -0.5, 0 a 0.5,0.5 0 1,0 1,0 a 0.5,0.5 0 1,0 -1,0  M129.07 353.66666666666663 L129.07 353.66666666666663 141.07 353.66666666666663 M135.07 359.66666666666663 L135.07 359.66666666666663 135.07 347.66666666666663 M141.07 353.66666666666663 Q 159.61 353.66666666666663, 178.15 353.67 T 215.22111111111175 353.66777777777696 M 227.22111111111175 353.66777777777696 m -1, 0 a 1,1 0 1,0 2,0 a 1,1 0 1,0 -2,0 M 227.22111111111175 353.66777777777696 m -0.5, 0 a 0.5,0.5 0 1,0 1,0 a 0.5,0.5 0 1,0 -1,0  M227.22111111111175 353.66777777777696 L227.22111111111175 353.66777777777696 215.22111111111175 353.66777777777696 M221.22111111111175 359.66777777777696 L221.22111111111175 359.66777777777696 221.22111111111175 347.66777777777696" id="h2134930807" class="r"></path></g><g class="hrs"></g><g class="ts"><svg width="168.51" height="100" x="-39.43888888888836" y="296.66666666666663" id="h1676682957" class="t"><rect height="40" width="168.51" class="th"></rect><text x="13" y="25" class="tht">dept_manager</text><rect height="60" width="168.51" class="t-bg" y="40"></rect><text x="13" y="61" class="tf fk">dept_no<tspan x="155.51" class="ty">VARCHAR(10)</tspan></text><text x="13" y="86" class="tf pk">emp_no<tspan x="155.51" class="ty">INT</tspan></text><path d="M7,14A2,2 0 0,1 5,12A2,2 0 0,1 7,10A2,2 0 0,1 9,12A2,2 0 0,1 7,14M12.65,10C11.83,7.67 9.61,6 7, 6A6, 6 0 0, 0 1, 12A6, 6 0 0, 0 7, 18C9.61, 18 11.83, 16.33 12.65, 14H17V18H21V14H23V10H12.65Z" class="i pk" transform="translate(116.17992187499999, 73) scale(0.65)"></path></svg><svg width="188.51" height="100" x="227.22111111111175" y="296.66777777777696" id="h1090417462" class="t"><rect height="40" width="188.51" class="th"></rect><text x="13" y="25" class="tht">dept_emp</text><rect height="60" width="188.51" class="t-bg" y="40"></rect><text x="13" y="61" class="tf pk">emp_no<tspan x="175.51" class="ty">INT</tspan></text><path d="M7,14A2,2 0 0,1 5,12A2,2 0 0,1 7,10A2,2 0 0,1 9,12A2,2 0 0,1 7,14M12.65,10C11.83,7.67 9.61,6 7, 6A6, 6 0 0, 0 1, 12A6, 6 0 0, 0 7, 18C9.61, 18 11.83, 16.33 12.65, 14H17V18H21V14H23V10H12.65Z" class="i pk" transform="translate(136.179921875, 48) scale(0.65)"></path><text x="13" y="86" class="tf pk">dept_no<tspan x="175.51" class="ty">VARCHAR(10)</tspan></text><path d="M7,14A2,2 0 0,1 5,12A2,2 0 0,1 7,10A2,2 0 0,1 9,12A2,2 0 0,1 7,14M12.65,10C11.83,7.67 9.61,6 7, 6A6, 6 0 0, 0 1, 12A6, 6 0 0, 0 7, 18C9.61, 18 11.83, 16.33 12.65, 14H17V18H21V14H23V10H12.65Z" class="i pk" transform="translate(76.37914062499999, 73) scale(0.65)"></path></svg><svg width="188.51" height="100" x="533.3288888888881" y="501.10777777778026" id="h475896179" class="t"><rect height="40" width="188.51" class="th"></rect><text x="13" y="25" class="tht">departments</text><rect height="60" width="188.51" class="t-bg" y="40"></rect><text x="13" y="61" class="tf pk">dept_no<tspan x="175.51" class="ty">VARCHAR(10)</tspan></text><path d="M7,14A2,2 0 0,1 5,12A2,2 0 0,1 7,10A2,2 0 0,1 9,12A2,2 0 0,1 7,14M12.65,10C11.83,7.67 9.61,6 7, 6A6, 6 0 0, 0 1, 12A6, 6 0 0, 0 7, 18C9.61, 18 11.83, 16.33 12.65, 14H17V18H21V14H23V10H12.65Z" class="i pk" transform="translate(76.37914062499999, 48) scale(0.65)"></path><text x="13" y="86" class="tf">dept_name<tspan x="175.51" class="ty">VARCHAR(30)</tspan></text></svg><svg width="189.84" height="225" x="518.878888888889" y="107.78777777777785" id="h1639608377" class="t"><rect height="40" width="189.84" class="th"></rect><text x="13" y="25" class="tht">employees</text><rect height="185" width="189.84" class="t-bg" y="40"></rect><text x="13" y="61" class="tf pk">emp_no<tspan x="176.84" class="ty">INT</tspan></text><path d="M7,14A2,2 0 0,1 5,12A2,2 0 0,1 7,10A2,2 0 0,1 9,12A2,2 0 0,1 7,14M12.65,10C11.83,7.67 9.61,6 7, 6A6, 6 0 0, 0 1, 12A6, 6 0 0, 0 7, 18C9.61, 18 11.83, 16.33 12.65, 14H17V18H21V14H23V10H12.65Z" class="i pk" transform="translate(137.509921875, 48) scale(0.65)"></path><text x="13" y="86" class="tf fk">emp_title_id<tspan x="176.84" class="ty">VARCHAR(10)</tspan></text><text x="13" y="111" class="tf">birth_date<tspan x="176.84" class="ty">DATE</tspan></text><text x="13" y="136" class="tf">first_name<tspan x="176.84" class="ty">VARCHAR(50)</tspan></text><text x="13" y="161" class="tf">last_name<tspan x="176.84" class="ty">VARCHAR(50)</tspan></text><text x="13" y="186" class="tf">sex<tspan x="176.84" class="ty">VARCHAR(1)</tspan></text><text x="13" y="211" class="tf">hire_date<tspan x="176.84" class="ty">DATE</tspan></text></svg><svg width="179.82" height="100" x="831.1200000000009" y="274.44111111111107" id="h311790747" class="t"><rect height="40" width="179.82" class="th"></rect><text x="13" y="25" class="tht">titles</text><rect height="60" width="179.82" class="t-bg" y="40"></rect><text x="13" y="61" class="tf pk">title_id<tspan x="166.82" class="ty">VARCHAR(10)</tspan></text><path d="M7,14A2,2 0 0,1 5,12A2,2 0 0,1 7,10A2,2 0 0,1 9,12A2,2 0 0,1 7,14M12.65,10C11.83,7.67 9.61,6 7, 6A6, 6 0 0, 0 1, 12A6, 6 0 0, 0 7, 18C9.61, 18 11.83, 16.33 12.65, 14H17V18H21V14H23V10H12.65Z" class="i pk" transform="translate(67.689140625, 48) scale(0.65)"></path><text x="13" y="86" class="tf">title<tspan x="166.82" class="ty">VARCHAR(30)</tspan></text></svg><svg width="128.7" height="100" x="823.3344444444458" y="-22.222222222222168" id="h2472833127" class="t"><rect height="40" width="128.7" class="th"></rect><text x="13" y="25" class="tht">salaries</text><rect height="60" width="128.7" class="t-bg" y="40"></rect><text x="13" y="61" class="tf pk">emp_no<tspan x="115.69999999999999" class="ty">INT</tspan></text><path d="M7,14A2,2 0 0,1 5,12A2,2 0 0,1 7,10A2,2 0 0,1 9,12A2,2 0 0,1 7,14M12.65,10C11.83,7.67 9.61,6 7, 6A6, 6 0 0, 0 1, 12A6, 6 0 0, 0 7, 18C9.61, 18 11.83, 16.33 12.65, 14H17V18H21V14H23V10H12.65Z" class="i pk" transform="translate(76.36992187499999, 48) scale(0.65)"></path><text x="13" y="86" class="tf">salary<tspan x="115.69999999999999" class="ty">MONEY</tspan></text></svg></g></g><text class="qdbd-link" x="10" y="20">www.quickdatabasediagrams.com</text></svg>