<svg class="diagram-root" style="background: #f5f6f6" xmlns="http://www.w3.org/2000/svg" xmlns:xlink="http://www.w3.org/1999/xlink"><style>.diagram-root { font-family: "Helvetica Neue", sans-serif; font-size: 12px; } .t { overflow: visible; } .t-bg { y: 40; fill: #fff;   } .th { fill: #005aa0;   } .tht { fill: #fff; font-size: 14px;  } .tf { fill: #323c46; overflow: visible; } .tf.pk { fill: #005aa0; font-weight: bold; } .tf.fk { font-weight: bold; } .ty { fill: #adb1b5; font-weight: normal; text-anchor: end; } .r { fill: transparent; stroke: #c3c3c3; stroke-width: 1; } .l { stroke: 1; } .i { fill: #c2c7ce; stroke: #c2c7ce; } .i.ix { fill: #afb3b6; stroke: #000; } .fa { fill: transparent; overflow: visible; } .fa .bg.hover { fill: #f7f7f7; } .c { cy: 12; r: 4; stroke: #d2d2dc; fill: #d2d2dc; } .hr { fill: transparent; stroke: #323c46; stroke-opacity: 0.035; stroke-width: 13; } .dc { stroke: #fa5a3c; fill: #fa5a3c; } .x { stroke: white; stroke-width: 1; } .hl .th { fill: #1b9bff; } .hl .tht {  } .fhl .bg { fill: #e7f4ff; } .fhls .bg {  } .r.hl { stroke: #1b9bff; } .dim { opacity: 0.25; }</style><g class="drawing-wrapper" transform="translate(142.00222222222206, 190.0044444444444) scale(1,1)"><g class="rs"><path d="M -70.00666666666673 84.22111111111111 m -1, 0 a 1,1 0 1,0 2,0 a 1,1 0 1,0 -2,0 M -70.00666666666673 84.22111111111111 m -0.5, 0 a 0.5,0.5 0 1,0 1,0 a 0.5,0.5 0 1,0 -1,0  M-70.00666666666673 84.22111111111111 L-70.00666666666673 84.22111111111111 -82.00666666666673 84.22111111111111 M -70.00666666666673 90.22111111111111 m -1, 0 a 1,1 0 1,0 2,0 a 1,1 0 1,0 -2,0 M -70.00666666666673 90.22111111111111 m -0.5, 0 a 0.5,0.5 0 1,0 1,0 a 0.5,0.5 0 1,0 -1,0  M-70.00666666666673 90.22111111111111 L-70.00666666666673 90.22111111111111 -77.00666666666673 84.22111111111111 -70.00666666666673 78.22111111111111 M -70.00666666666673 78.22111111111111 m -1, 0 a 1,1 0 1,0 2,0 a 1,1 0 1,0 -2,0 M -70.00666666666673 78.22111111111111 m -0.5, 0 a 0.5,0.5 0 1,0 1,0 a 0.5,0.5 0 1,0 -1,0  M-82.00666666666673 84.22111111111111 C -211.99955555555525 84.22111111111111, -182.00222222222206 315.8800000000009, -132.00222222222206 315.8800000000009 M -120.00222222222206 315.8800000000009 m -1, 0 a 1,1 0 1,0 2,0 a 1,1 0 1,0 -2,0 M -120.00222222222206 315.8800000000009 m -0.5, 0 a 0.5,0.5 0 1,0 1,0 a 0.5,0.5 0 1,0 -1,0  M-120.00222222222206 315.8800000000009 L-120.00222222222206 315.8800000000009 -132.00222222222206 315.8800000000009 M-126.00222222222206 321.8800000000009 L-126.00222222222206 321.8800000000009 -126.00222222222206 309.8800000000009" id="h1537058300" class="r"></path><path d="M 224.9900000000003 -51.886666666666514 m -1, 0 a 1,1 0 1,0 2,0 a 1,1 0 1,0 -2,0 M 224.9900000000003 -51.886666666666514 m -0.5, 0 a 0.5,0.5 0 1,0 1,0 a 0.5,0.5 0 1,0 -1,0  M224.9900000000003 -51.886666666666514 L224.9900000000003 -51.886666666666514 212.9900000000003 -51.886666666666514 M 224.9900000000003 -45.886666666666514 m -1, 0 a 1,1 0 1,0 2,0 a 1,1 0 1,0 -2,0 M 224.9900000000003 -45.886666666666514 m -0.5, 0 a 0.5,0.5 0 1,0 1,0 a 0.5,0.5 0 1,0 -1,0  M224.9900000000003 -45.886666666666514 L224.9900000000003 -45.886666666666514 217.9900000000003 -51.886666666666514 224.9900000000003 -57.886666666666514 M 224.9900000000003 -57.886666666666514 m -1, 0 a 1,1 0 1,0 2,0 a 1,1 0 1,0 -2,0 M 224.9900000000003 -57.886666666666514 m -0.5, 0 a 0.5,0.5 0 1,0 1,0 a 0.5,0.5 0 1,0 -1,0  M212.9900000000003 -51.886666666666514 Q 194.37 -51.886666666666514, 175.75 3.67 T 138.5 59.221111111111114 M 126.5 59.221111111111114 m -1, 0 a 1,1 0 1,0 2,0 a 1,1 0 1,0 -2,0 M 126.5 59.221111111111114 m -0.5, 0 a 0.5,0.5 0 1,0 1,0 a 0.5,0.5 0 1,0 -1,0  M126.5 59.221111111111114 L126.5 59.221111111111114 138.5 59.221111111111114 M132.5 65.22111111111111 L132.5 65.22111111111111 132.5 53.221111111111114" id="h1139284389" class="r"></path><path d="M 400.17 -26.886666666666514 m -1, 0 a 1,1 0 1,0 2,0 a 1,1 0 1,0 -2,0 M 400.17 -26.886666666666514 m -0.5, 0 a 0.5,0.5 0 1,0 1,0 a 0.5,0.5 0 1,0 -1,0  M400.17 -26.886666666666514 L400.17 -26.886666666666514 412.17 -26.886666666666514 M 400.17 -20.886666666666514 m -1, 0 a 1,1 0 1,0 2,0 a 1,1 0 1,0 -2,0 M 400.17 -20.886666666666514 m -0.5, 0 a 0.5,0.5 0 1,0 1,0 a 0.5,0.5 0 1,0 -1,0  M400.17 -20.886666666666514 L400.17 -20.886666666666514 407.17 -26.886666666666514 400.17 -32.886666666666514 M 400.17 -32.886666666666514 m -1, 0 a 1,1 0 1,0 2,0 a 1,1 0 1,0 -2,0 M 400.17 -32.886666666666514 m -0.5, 0 a 0.5,0.5 0 1,0 1,0 a 0.5,0.5 0 1,0 -1,0  M412.17 -26.886666666666514 Q 432.1 -26.886666666666514, 452.03 17.83 T 491.8900000000027 62.55444444444444 M 503.8900000000027 62.55444444444444 m -1, 0 a 1,1 0 1,0 2,0 a 1,1 0 1,0 -2,0 M 503.8900000000027 62.55444444444444 m -0.5, 0 a 0.5,0.5 0 1,0 1,0 a 0.5,0.5 0 1,0 -1,0  M503.8900000000027 62.55444444444444 L503.8900000000027 62.55444444444444 491.8900000000027 62.55444444444444 M497.8900000000027 68.55444444444444 L497.8900000000027 68.55444444444444 497.8900000000027 56.55444444444444" id="h1607168654" class="r"></path><path d="M -107.77777777777752 -103.0044444444444 m -1, 0 a 1,1 0 1,0 2,0 a 1,1 0 1,0 -2,0 M -107.77777777777752 -103.0044444444444 m -0.5, 0 a 0.5,0.5 0 1,0 1,0 a 0.5,0.5 0 1,0 -1,0  M-107.77777777777752 -103.0044444444444 L-107.77777777777752 -103.0044444444444 -119.77777777777752 -103.0044444444444 M -107.77777777777752 -97.0044444444444 m -1, 0 a 1,1 0 1,0 2,0 a 1,1 0 1,0 -2,0 M -107.77777777777752 -97.0044444444444 m -0.5, 0 a 0.5,0.5 0 1,0 1,0 a 0.5,0.5 0 1,0 -1,0  M-107.77777777777752 -97.0044444444444 L-107.77777777777752 -97.0044444444444 -114.77777777777752 -103.0044444444444 -107.77777777777752 -109.0044444444444 M -107.77777777777752 -109.0044444444444 m -1, 0 a 1,1 0 1,0 2,0 a 1,1 0 1,0 -2,0 M -107.77777777777752 -109.0044444444444 m -0.5, 0 a 0.5,0.5 0 1,0 1,0 a 0.5,0.5 0 1,0 -1,0  M-119.77777777777752 -103.0044444444444 C -169.77777777777752 -103.0044444444444, -192.44044444444398 59.221111111111114, -82.00666666666673 59.221111111111114 M -70.00666666666673 59.221111111111114 m -1, 0 a 1,1 0 1,0 2,0 a 1,1 0 1,0 -2,0 M -70.00666666666673 59.221111111111114 m -0.5, 0 a 0.5,0.5 0 1,0 1,0 a 0.5,0.5 0 1,0 -1,0  M-70.00666666666673 59.221111111111114 L-70.00666666666673 59.221111111111114 -82.00666666666673 59.221111111111114 M-76.00666666666673 65.22111111111111 L-76.00666666666673 65.22111111111111 -76.00666666666673 53.221111111111114" id="h3177548053" class="r"></path><path d="M 408.51 175.89888888888862 m -1, 0 a 1,1 0 1,0 2,0 a 1,1 0 1,0 -2,0 M 408.51 175.89888888888862 m -0.5, 0 a 0.5,0.5 0 1,0 1,0 a 0.5,0.5 0 1,0 -1,0  M408.51 175.89888888888862 L408.51 175.89888888888862 420.51 175.89888888888862 M 408.51 181.89888888888862 m -1, 0 a 1,1 0 1,0 2,0 a 1,1 0 1,0 -2,0 M 408.51 181.89888888888862 m -0.5, 0 a 0.5,0.5 0 1,0 1,0 a 0.5,0.5 0 1,0 -1,0  M408.51 181.89888888888862 L408.51 181.89888888888862 415.51 175.89888888888862 408.51 169.89888888888862 M 408.51 169.89888888888862 m -1, 0 a 1,1 0 1,0 2,0 a 1,1 0 1,0 -2,0 M 408.51 169.89888888888862 m -0.5, 0 a 0.5,0.5 0 1,0 1,0 a 0.5,0.5 0 1,0 -1,0  M420.51 175.89888888888862 Q 438.36 175.89888888888862, 456.2 119.23 T 491.8900000000027 62.55444444444444 M 503.8900000000027 62.55444444444444 m -1, 0 a 1,1 0 1,0 2,0 a 1,1 0 1,0 -2,0 M 503.8900000000027 62.55444444444444 m -0.5, 0 a 0.5,0.5 0 1,0 1,0 a 0.5,0.5 0 1,0 -1,0  M503.8900000000027 62.55444444444444 L503.8900000000027 62.55444444444444 491.8900000000027 62.55444444444444 M497.8900000000027 68.55444444444444 L497.8900000000027 68.55444444444444 497.8900000000027 56.55444444444444" id="h1397587031" class="r"></path><path d="M 233.3333333333339 200.89888888888862 m -1, 0 a 1,1 0 1,0 2,0 a 1,1 0 1,0 -2,0 M 233.3333333333339 200.89888888888862 m -0.5, 0 a 0.5,0.5 0 1,0 1,0 a 0.5,0.5 0 1,0 -1,0  M233.3333333333339 200.89888888888862 L233.3333333333339 200.89888888888862 221.3333333333339 200.89888888888862 M227.3333333333339 206.89888888888862 L227.3333333333339 206.89888888888862 227.3333333333339 194.89888888888862 M221.3333333333339 200.89888888888862 Q 200.63 200.89888888888862, 179.92 130.06 T 138.5 59.221111111111114 M 126.5 59.221111111111114 m -1, 0 a 1,1 0 1,0 2,0 a 1,1 0 1,0 -2,0 M 126.5 59.221111111111114 m -0.5, 0 a 0.5,0.5 0 1,0 1,0 a 0.5,0.5 0 1,0 -1,0  M126.5 59.221111111111114 L126.5 59.221111111111114 138.5 59.221111111111114 M132.5 65.22111111111111 L132.5 65.22111111111111 132.5 53.221111111111114" id="h2286254435" class="r"></path></g><g class="hrs"></g><g class="ts"><svg width="195.18" height="100" x="503.8900000000027" y="5.554444444444442" id="h475896179" class="t"><rect height="40" width="195.18" class="th"></rect><text x="13" y="25" class="tht">departments</text><rect height="60" width="195.18" class="t-bg" y="40"></rect><text x="13" y="61" class="tf pk">dept_no<tspan x="182.18" class="ty">VARCHAR(255)</tspan></text><path d="M7,14A2,2 0 0,1 5,12A2,2 0 0,1 7,10A2,2 0 0,1 9,12A2,2 0 0,1 7,14M12.65,10C11.83,7.67 9.61,6 7, 6A6, 6 0 0, 0 1, 12A6, 6 0 0, 0 7, 18C9.61, 18 11.83, 16.33 12.65, 14H17V18H21V14H23V10H12.65Z" class="i pk" transform="translate(76.3753125, 48) scale(0.65)"></path><text x="13" y="86" class="tf">dept_name<tspan x="182.18" class="ty">VARCHAR(255)</tspan></text></svg><svg width="175.18" height="100" x="224.9900000000003" y="-108.88666666666651" id="h1090417462" class="t"><rect height="40" width="175.18" class="th"></rect><text x="13" y="25" class="tht">dept_emp</text><rect height="60" width="175.18" class="t-bg" y="40"></rect><text x="13" y="61" class="tf fk">emp_no<tspan x="162.18" class="ty">INT</tspan></text><text x="13" y="86" class="tf fk">dept_no<tspan x="162.18" class="ty">VARCHAR(255)</tspan></text></svg><svg width="175.18" height="100" x="233.3333333333339" y="118.89888888888862" id="h1676682957" class="t"><rect height="40" width="175.18" class="th"></rect><text x="13" y="25" class="tht">dept_manager</text><rect height="60" width="175.18" class="t-bg" y="40"></rect><text x="13" y="61" class="tf fk">dept_no<tspan x="162.18" class="ty">VARCHAR(255)</tspan></text><text x="13" y="86" class="tf fk">emp_no<tspan x="162.18" class="ty">INT</tspan></text></svg><svg width="196.51" height="225" x="-70.00666666666673" y="2.221111111111111" id="h1639608377" class="t"><rect height="40" width="196.51" class="th"></rect><text x="13" y="25" class="tht">employees</text><rect height="185" width="196.51" class="t-bg" y="40"></rect><text x="13" y="61" class="tf pk">emp_no<tspan x="183.51" class="ty">INT</tspan></text><path d="M7,14A2,2 0 0,1 5,12A2,2 0 0,1 7,10A2,2 0 0,1 9,12A2,2 0 0,1 7,14M12.65,10C11.83,7.67 9.61,6 7, 6A6, 6 0 0, 0 1, 12A6, 6 0 0, 0 7, 18C9.61, 18 11.83, 16.33 12.65, 14H17V18H21V14H23V10H12.65Z" class="i pk" transform="translate(144.179921875, 48) scale(0.65)"></path><text x="13" y="86" class="tf fk">emp_title_id<tspan x="183.51" class="ty">VARCHAR(255)</tspan></text><text x="13" y="111" class="tf">birth_date<tspan x="183.51" class="ty">DATE</tspan></text><text x="13" y="136" class="tf">first_name<tspan x="183.51" class="ty">VARCHAR(255)</tspan></text><text x="13" y="161" class="tf">last_name<tspan x="183.51" class="ty">VARCHAR(255)</tspan></text><text x="13" y="186" class="tf">sex<tspan x="183.51" class="ty">VARCHAR(255)</tspan></text><text x="13" y="211" class="tf">hire_date<tspan x="183.51" class="ty">DATE</tspan></text></svg><svg width="122.01" height="100" x="-107.77777777777752" y="-160.0044444444444" id="h2472833127" class="t"><rect height="40" width="122.01" class="th"></rect><text x="13" y="25" class="tht">salaries</text><rect height="60" width="122.01" class="t-bg" y="40"></rect><text x="13" y="61" class="tf fk">emp_no<tspan x="109.01" class="ty">INT</tspan></text><text x="13" y="86" class="tf">salary<tspan x="109.01" class="ty">MONEY</tspan></text></svg><svg width="186.49" height="100" x="-120.00222222222206" y="258.8800000000009" id="h311790747" class="t"><rect height="40" width="186.49" class="th"></rect><text x="13" y="25" class="tht">titles</text><rect height="60" width="186.49" class="t-bg" y="40"></rect><text x="13" y="61" class="tf pk">title_id<tspan x="173.49" class="ty">VARCHAR(255)</tspan></text><path d="M7,14A2,2 0 0,1 5,12A2,2 0 0,1 7,10A2,2 0 0,1 9,12A2,2 0 0,1 7,14M12.65,10C11.83,7.67 9.61,6 7, 6A6, 6 0 0, 0 1, 12A6, 6 0 0, 0 7, 18C9.61, 18 11.83, 16.33 12.65, 14H17V18H21V14H23V10H12.65Z" class="i pk" transform="translate(67.68531250000001, 48) scale(0.65)"></path><text x="13" y="86" class="tf">title<tspan x="173.49" class="ty">VARCHAR(255)</tspan></text></svg></g></g><text class="qdbd-link" x="10" y="20">www.quickdatabasediagrams.com</text></svg>